<svg xmlns="http://www.w3.org/2000/svg" width="64" height="64" viewBox="0 0 64 64">
  <ellipse cx="32" cy="55.3" rx="12.8" ry="3.9" fill="#000000" opacity="0.2"/>
  <path d="M25.7 25.8l3.8-3.7h4.8l3 3.6v2.2h-11.6z" fill="#cbcbcb"/>
  <circle cx="31.8" cy="20.9" r="5.1" fill="#ededed"/>
  <rect x="35.8" y="27.9" width="4.3" height="11.5" rx="1" transform="rotate(-14 37.95 33.65)" fill="#ababab"/>
  <path d="M24.2 29l7.7-3.4l6.6 3.6l-1.1 15l-5.5 3h-4.9l-5.1-3z" fill="#d8d8d8"/>
  <path d="M24.2 47h4.7l-0.7 4.3h-4.9z" fill="#f2f2f2"/>
  <path d="M34.4 47h4.9l0.8 4.2h-5.1z" fill="#e7e7e7"/>
  <path d="M22.8 21.6c8 0 14.5 5.1 14.5 11.5s-6.5 11.5-14.5 11.5" fill="none" stroke="#f1f1f1" stroke-width="2.6" stroke-linecap="round"/>
  <line x1="23.2" y1="23.1" x2="43.4" y2="39" stroke="#e6e6e6" stroke-width="1.8" stroke-linecap="round"/>
  <line x1="42.4" y1="38.4" x2="46.7" y2="34.2" stroke="#d0d0d0" stroke-width="1.6" stroke-linecap="round"/>
  <path d="M21.1 31.7h12.3" stroke="#c6c6c6" stroke-width="1.2" stroke-linecap="round"/>
</svg>


