<svg xmlns="http://www.w3.org/2000/svg" width="64" height="64" viewBox="0 0 64 64">
  <ellipse cx="31.5" cy="55.2" rx="12.6" ry="3.9" fill="#000000" opacity="0.2"/>
  <rect x="41.2" y="22.3" width="2.9" height="26.1" rx="1.2" fill="#dadada"/>
  <circle cx="42.7" cy="21.1" r="1.5" fill="#f0f0f0"/>
  <path d="M33.1 17.1c3.2 0 5.7 2.5 5.7 5.6c0 3.2-2.5 5.7-5.7 5.7c-3.1 0-5.6-2.5-5.6-5.7c0-3.1 2.5-5.6 5.6-5.6z" fill="#ededed"/>
  <path d="M27.2 23.6l3.5-4.1h5.1l2.6 4.1l-2.3 2.2h-6.8z" fill="#cfcfcf"/>
  <path d="M24.3 31.1l8.7-5.2l7.8 4.8l-1.2 15.7l-5.9 2.2h-5.3l-5.4-2.5z" fill="#d8d8d8"/>
  <path d="M26.1 29.4l-3.6 2.4v13.6l4.4 1.9z" fill="#bdbdbd"/>
  <rect x="35.5" y="30.4" width="4.6" height="10.6" rx="1" fill="#b0b0b0"/>
  <path d="M25.4 47.5h4.5l-0.7 4h-4.8z" fill="#f2f2f2"/>
  <path d="M33.2 47.5h4.8l0.8 3.9h-5.1z" fill="#e7e7e7"/>
  <path d="M35.2 32.4c2.4 2 4.3 4.8 5.3 8.1" fill="none" stroke="#f3f3f3" stroke-width="1.4" stroke-linecap="round"/>
</svg>


